REM MD5 31252140848c02e348156694386c542a
FILE "Kamen Rider Agito & Hyakujuu Sentai GaoRanger (Japan) (Demo).bin" BINARY
  TRACK 01 MODE2/2352
    INDEX 01 00:00:00
  TRACK 02 AUDIO
    INDEX 00 09:56:30
    INDEX 01 09:58:30
  TRACK 03 AUDIO
    INDEX 00 10:12:33
    INDEX 01 10:14:33
REM LEADOUT 13:44:33
